<mxfile host="Electron" agent="Mozilla/5.0 (Windows NT 10.0; Win64; x64) AppleWebKit/537.36 (KHTML, like Gecko) draw.io/26.0.16 Chrome/132.0.6834.196 Electron/34.2.0 Safari/537.36" version="26.0.16">
  <diagram name="Page-1" id="hQhouuUS5T3vGQ-r5ARh">
    <mxGraphModel dx="1036" dy="606" grid="1" gridSize="10" guides="1" tooltips="1" connect="1" arrows="1" fold="1" page="1" pageScale="1" pageWidth="850" pageHeight="1100" math="0" shadow="0">
      <root>
        <mxCell id="0" />
        <mxCell id="1" parent="0" />
        <mxCell id="Lbz_xhJ_zkLPbIxlJQBl-1" value="" style="rounded=0;whiteSpace=wrap;html=1;fillColor=none;dashed=1;strokeColor=#B2B2B2;strokeWidth=2;" vertex="1" parent="1">
          <mxGeometry x="28" y="110" width="132" height="450" as="geometry" />
        </mxCell>
        <mxCell id="Lbz_xhJ_zkLPbIxlJQBl-2" value="High Level Architecute" style="rounded=0;fontSize=23;labelBorderColor=none;html=1;whiteSpace=wrap;fontColor=default;strokeColor=none;" vertex="1" parent="1">
          <mxGeometry x="20" y="10" width="310" height="60" as="geometry" />
        </mxCell>
        <mxCell id="Lbz_xhJ_zkLPbIxlJQBl-3" value="" style="rounded=0;whiteSpace=wrap;html=1;fillColor=none;dashed=1;strokeColor=#B2B2B2;strokeWidth=2;" vertex="1" parent="1">
          <mxGeometry x="190" y="110" width="640" height="450" as="geometry" />
        </mxCell>
        <mxCell id="Lbz_xhJ_zkLPbIxlJQBl-4" value="Source" style="rounded=0;whiteSpace=wrap;html=1;strokeColor=none;fontSize=13;fontStyle=1" vertex="1" parent="1">
          <mxGeometry x="48" y="80" width="80" height="60" as="geometry" />
        </mxCell>
        <mxCell id="Lbz_xhJ_zkLPbIxlJQBl-7" value="Data Warehouse&lt;div&gt;&lt;br&gt;&lt;/div&gt;" style="rounded=0;whiteSpace=wrap;html=1;strokeColor=none;fontStyle=1;fontSize=13;" vertex="1" parent="1">
          <mxGeometry x="410" y="108" width="110" height="20" as="geometry" />
        </mxCell>
        <mxCell id="Lbz_xhJ_zkLPbIxlJQBl-10" value="" style="rounded=0;whiteSpace=wrap;html=1;fillColor=none;strokeColor=#d79b00;strokeWidth=2;" vertex="1" parent="1">
          <mxGeometry x="210" y="139" width="166" height="421" as="geometry" />
        </mxCell>
        <mxCell id="Lbz_xhJ_zkLPbIxlJQBl-11" value="Bronze Layer" style="rounded=0;whiteSpace=wrap;html=1;strokeColor=#d79b00;fontSize=13;fontStyle=1;fillColor=#ffe6cc;" vertex="1" parent="1">
          <mxGeometry x="248" y="123" width="100" height="29" as="geometry" />
        </mxCell>
        <mxCell id="Lbz_xhJ_zkLPbIxlJQBl-12" value="" style="rounded=0;whiteSpace=wrap;html=1;strokeWidth=2;fillColor=#f5f5f5;fontColor=#333333;strokeColor=#666666;" vertex="1" parent="1">
          <mxGeometry x="427" y="139" width="166" height="421" as="geometry" />
        </mxCell>
        <mxCell id="Lbz_xhJ_zkLPbIxlJQBl-13" value="Silver Layer" style="rounded=0;whiteSpace=wrap;html=1;strokeColor=#666666;fontSize=13;fontStyle=1;fillColor=#f5f5f5;fontColor=#333333;" vertex="1" parent="1">
          <mxGeometry x="473" y="123" width="80" height="29" as="geometry" />
        </mxCell>
        <mxCell id="Lbz_xhJ_zkLPbIxlJQBl-14" value="" style="rounded=0;whiteSpace=wrap;html=1;fillColor=none;strokeColor=#d6b656;strokeWidth=2;" vertex="1" parent="1">
          <mxGeometry x="644" y="139" width="166" height="421" as="geometry" />
        </mxCell>
        <mxCell id="Lbz_xhJ_zkLPbIxlJQBl-15" value="Gold Layer" style="rounded=0;whiteSpace=wrap;html=1;strokeColor=#d6b656;fontSize=13;fontStyle=1;fillColor=#fff2cc;" vertex="1" parent="1">
          <mxGeometry x="690" y="123" width="80" height="29" as="geometry" />
        </mxCell>
        <mxCell id="Lbz_xhJ_zkLPbIxlJQBl-16" value="" style="rounded=0;whiteSpace=wrap;html=1;strokeColor=#B2B2B2;dashed=1;fillColor=none;strokeWidth=2;" vertex="1" parent="1">
          <mxGeometry x="880" y="110" width="160" height="450" as="geometry" />
        </mxCell>
        <mxCell id="Lbz_xhJ_zkLPbIxlJQBl-17" value="Consume" style="rounded=0;whiteSpace=wrap;html=1;strokeColor=none;fontSize=13;fontStyle=1" vertex="1" parent="1">
          <mxGeometry x="920" y="79" width="80" height="60" as="geometry" />
        </mxCell>
        <mxCell id="Lbz_xhJ_zkLPbIxlJQBl-18" value="" style="image;aspect=fixed;html=1;points=[];align=center;fontSize=12;image=img/lib/azure2/general/Folder_Blank.svg;" vertex="1" parent="1">
          <mxGeometry x="60" y="170" width="69" height="56.00000000000001" as="geometry" />
        </mxCell>
        <mxCell id="Lbz_xhJ_zkLPbIxlJQBl-19" value="" style="image;aspect=fixed;html=1;points=[];align=center;fontSize=12;image=img/lib/azure2/general/Files.svg;" vertex="1" parent="1">
          <mxGeometry x="92.43" y="200" width="36.57" height="40" as="geometry" />
        </mxCell>
        <mxCell id="Lbz_xhJ_zkLPbIxlJQBl-20" value="CRM" style="rounded=0;whiteSpace=wrap;html=1;strokeColor=none;fontStyle=1" vertex="1" parent="1">
          <mxGeometry x="68.5" y="240" width="52" height="20" as="geometry" />
        </mxCell>
        <mxCell id="Lbz_xhJ_zkLPbIxlJQBl-24" value="" style="image;aspect=fixed;html=1;points=[];align=center;fontSize=12;image=img/lib/azure2/general/Folder_Blank.svg;" vertex="1" parent="1">
          <mxGeometry x="60" y="280" width="69" height="56.00000000000001" as="geometry" />
        </mxCell>
        <mxCell id="Lbz_xhJ_zkLPbIxlJQBl-25" value="" style="image;aspect=fixed;html=1;points=[];align=center;fontSize=12;image=img/lib/azure2/general/Files.svg;" vertex="1" parent="1">
          <mxGeometry x="92.43" y="310" width="36.57" height="40" as="geometry" />
        </mxCell>
        <mxCell id="Lbz_xhJ_zkLPbIxlJQBl-26" value="ERP" style="rounded=0;whiteSpace=wrap;html=1;strokeColor=none;fontStyle=1" vertex="1" parent="1">
          <mxGeometry x="68.5" y="350" width="52" height="20" as="geometry" />
        </mxCell>
        <mxCell id="Lbz_xhJ_zkLPbIxlJQBl-27" value="&lt;b&gt;Object Type&lt;/b&gt;: CSV files&lt;div&gt;&lt;b&gt;Interface&lt;/b&gt;: Files in folders&lt;/div&gt;" style="rounded=0;whiteSpace=wrap;html=1;fontSize=10;align=left;strokeColor=none;" vertex="1" parent="1">
          <mxGeometry x="38" y="370" width="120" height="60" as="geometry" />
        </mxCell>
        <mxCell id="Lbz_xhJ_zkLPbIxlJQBl-31" value="" style="shape=singleArrow;whiteSpace=wrap;html=1;fillColor=light-dark(#2cdaf2, #ededed);strokeColor=none;" vertex="1" parent="1">
          <mxGeometry x="160" y="260" width="50" height="30" as="geometry" />
        </mxCell>
        <mxCell id="Lbz_xhJ_zkLPbIxlJQBl-41" value="" style="html=1;verticalLabelPosition=bottom;align=center;labelBackgroundColor=#ffffff;verticalAlign=top;strokeWidth=2;strokeColor=#d79b00;shadow=0;dashed=0;shape=mxgraph.ios7.icons.data;fillColor=#ffe6cc;" vertex="1" parent="1">
          <mxGeometry x="269" y="228.5" width="48" height="60" as="geometry" />
        </mxCell>
        <mxCell id="Lbz_xhJ_zkLPbIxlJQBl-43" value="" style="html=1;verticalLabelPosition=bottom;align=center;labelBackgroundColor=#ffffff;verticalAlign=top;strokeWidth=2;strokeColor=#666666;shadow=0;dashed=0;shape=mxgraph.ios7.icons.data;fillColor=#f5f5f5;fontColor=#333333;" vertex="1" parent="1">
          <mxGeometry x="473" y="220" width="48" height="60" as="geometry" />
        </mxCell>
        <mxCell id="Lbz_xhJ_zkLPbIxlJQBl-44" value="" style="html=1;verticalLabelPosition=bottom;align=center;labelBackgroundColor=#ffffff;verticalAlign=top;strokeWidth=2;strokeColor=#d6b656;shadow=0;dashed=0;shape=mxgraph.ios7.icons.data;fillColor=#fff2cc;" vertex="1" parent="1">
          <mxGeometry x="684" y="220" width="48" height="60" as="geometry" />
        </mxCell>
        <mxCell id="Lbz_xhJ_zkLPbIxlJQBl-47" value="&lt;b&gt;Raw Data&lt;/b&gt;" style="text;html=1;align=center;verticalAlign=middle;whiteSpace=wrap;rounded=0;" vertex="1" parent="1">
          <mxGeometry x="216" y="289" width="110" height="31" as="geometry" />
        </mxCell>
        <mxCell id="Lbz_xhJ_zkLPbIxlJQBl-48" value="&lt;b&gt;Cleaned, Standardized Data&lt;/b&gt;" style="text;html=1;align=center;verticalAlign=middle;whiteSpace=wrap;rounded=0;" vertex="1" parent="1">
          <mxGeometry x="430" y="288.5" width="160" height="31" as="geometry" />
        </mxCell>
        <mxCell id="Lbz_xhJ_zkLPbIxlJQBl-49" value="&lt;b&gt;Business-Ready Data&lt;/b&gt;" style="text;html=1;align=center;verticalAlign=middle;whiteSpace=wrap;rounded=0;" vertex="1" parent="1">
          <mxGeometry x="644" y="292.5" width="156" height="31" as="geometry" />
        </mxCell>
        <mxCell id="Lbz_xhJ_zkLPbIxlJQBl-50" value="" style="line;strokeWidth=1;rotatable=0;dashed=0;labelPosition=right;align=left;verticalAlign=middle;spacingTop=0;spacingLeft=6;points=[];portConstraint=eastwest;fillColor=#f5f5f5;fontColor=#333333;strokeColor=#666666;" vertex="1" parent="1">
          <mxGeometry x="443" y="326" width="127" height="10" as="geometry" />
        </mxCell>
        <mxCell id="Lbz_xhJ_zkLPbIxlJQBl-51" value="" style="line;strokeWidth=1;rotatable=0;dashed=0;labelPosition=right;align=left;verticalAlign=middle;spacingTop=0;spacingLeft=6;points=[];portConstraint=eastwest;fillColor=#ffe6cc;strokeColor=#d79b00;fontStyle=1" vertex="1" parent="1">
          <mxGeometry x="216" y="323.5" width="144" height="10" as="geometry" />
        </mxCell>
        <mxCell id="Lbz_xhJ_zkLPbIxlJQBl-52" value="" style="line;strokeWidth=1;rotatable=0;dashed=0;labelPosition=right;align=left;verticalAlign=middle;spacingTop=0;spacingLeft=6;points=[];portConstraint=eastwest;fillColor=#fff2cc;strokeColor=#d6b656;fontStyle=1" vertex="1" parent="1">
          <mxGeometry x="654" y="326" width="142" height="10" as="geometry" />
        </mxCell>
        <mxCell id="Lbz_xhJ_zkLPbIxlJQBl-53" value="" style="line;strokeWidth=1;rotatable=0;dashed=0;labelPosition=right;align=left;verticalAlign=middle;spacingTop=0;spacingLeft=6;points=[];portConstraint=eastwest;fontStyle=1" vertex="1" parent="1">
          <mxGeometry x="48" y="370" width="100" height="10" as="geometry" />
        </mxCell>
        <mxCell id="Lbz_xhJ_zkLPbIxlJQBl-55" value="&lt;b&gt;Load:&lt;/b&gt;&lt;div&gt;&lt;ul&gt;&lt;li&gt;&lt;b&gt;Batch Processing&lt;/b&gt;&lt;/li&gt;&lt;li&gt;&lt;b&gt;Full Load&lt;/b&gt;&lt;/li&gt;&lt;li&gt;&lt;b&gt;Truncate &amp;amp; insert&lt;/b&gt;&lt;/li&gt;&lt;/ul&gt;&lt;div&gt;&lt;b&gt;No Transformation&lt;/b&gt;&lt;/div&gt;&lt;/div&gt;&lt;div&gt;&lt;b&gt;&lt;br&gt;&lt;/b&gt;&lt;/div&gt;&lt;div&gt;&lt;b&gt;Data Model: None(as-is)&lt;/b&gt;&lt;/div&gt;" style="rounded=0;whiteSpace=wrap;html=1;fontSize=10;align=left;strokeColor=none;" vertex="1" parent="1">
          <mxGeometry x="227.5" y="350" width="131" height="75" as="geometry" />
        </mxCell>
        <mxCell id="Lbz_xhJ_zkLPbIxlJQBl-56" value="&lt;b&gt;Load:&lt;/b&gt;&lt;div&gt;&lt;ul&gt;&lt;li&gt;&lt;b&gt;Batch Processing&lt;/b&gt;&lt;/li&gt;&lt;li&gt;&lt;b&gt;Full Load&lt;/b&gt;&lt;/li&gt;&lt;li&gt;&lt;b&gt;Truncate &amp;amp; insert&lt;/b&gt;&lt;/li&gt;&lt;/ul&gt;&lt;div&gt;&lt;b&gt;Transformations:&lt;/b&gt;&lt;/div&gt;&lt;/div&gt;&lt;div&gt;&lt;ul&gt;&lt;li&gt;&lt;b&gt;Data Cleansing&lt;/b&gt;&lt;/li&gt;&lt;li&gt;&lt;b&gt;Data Standardization&lt;/b&gt;&lt;/li&gt;&lt;li&gt;&lt;b&gt;Data Normalization&lt;/b&gt;&lt;/li&gt;&lt;li&gt;&lt;b&gt;Derived Columns&lt;/b&gt;&lt;/li&gt;&lt;li&gt;&lt;b&gt;Data Enrichment&lt;/b&gt;&lt;/li&gt;&lt;/ul&gt;&lt;/div&gt;&lt;div&gt;&lt;b&gt;&lt;br&gt;&lt;/b&gt;&lt;/div&gt;&lt;div&gt;&lt;b&gt;Data Model: None(as-is)&lt;/b&gt;&lt;/div&gt;" style="rounded=0;whiteSpace=wrap;html=1;fontSize=10;align=left;strokeColor=none;fillColor=#f5f5f5;fontColor=#333333;" vertex="1" parent="1">
          <mxGeometry x="432.5" y="351" width="152.5" height="159" as="geometry" />
        </mxCell>
        <mxCell id="Lbz_xhJ_zkLPbIxlJQBl-58" value="&lt;b&gt;No Load&lt;/b&gt;&lt;div&gt;&lt;b&gt;&lt;br&gt;&lt;/b&gt;&lt;div&gt;&lt;div&gt;&lt;div&gt;&lt;b&gt;Transformations:&lt;/b&gt;&lt;/div&gt;&lt;/div&gt;&lt;div&gt;&lt;ul&gt;&lt;li&gt;&lt;b&gt;Data Integrations&lt;/b&gt;&lt;/li&gt;&lt;li&gt;&lt;b&gt;Aggregations&lt;/b&gt;&lt;/li&gt;&lt;li&gt;&lt;b&gt;Business Logics&lt;/b&gt;&lt;/li&gt;&lt;/ul&gt;&lt;/div&gt;&lt;div&gt;&lt;b&gt;&lt;br&gt;&lt;/b&gt;&lt;/div&gt;&lt;div&gt;&lt;b&gt;Data Models:&lt;/b&gt;&lt;/div&gt;&lt;/div&gt;&lt;/div&gt;&lt;div&gt;&lt;ul&gt;&lt;li&gt;&lt;b&gt;Star Schema&lt;/b&gt;&lt;/li&gt;&lt;li&gt;&lt;b&gt;Flat Table&lt;/b&gt;&lt;/li&gt;&lt;li&gt;&lt;b&gt;Aggregated Table&lt;/b&gt;&lt;/li&gt;&lt;/ul&gt;&lt;/div&gt;" style="rounded=0;whiteSpace=wrap;html=1;fontSize=10;align=left;strokeColor=none;" vertex="1" parent="1">
          <mxGeometry x="651.5" y="351" width="152.5" height="159" as="geometry" />
        </mxCell>
        <mxCell id="Lbz_xhJ_zkLPbIxlJQBl-60" value="" style="shape=singleArrow;whiteSpace=wrap;html=1;fillColor=light-dark(#2cdaf2, #ededed);strokeColor=none;" vertex="1" parent="1">
          <mxGeometry x="376" y="256" width="50" height="30" as="geometry" />
        </mxCell>
        <mxCell id="Lbz_xhJ_zkLPbIxlJQBl-61" value="" style="shape=singleArrow;whiteSpace=wrap;html=1;fillColor=light-dark(#2cdaf2, #ededed);strokeColor=none;" vertex="1" parent="1">
          <mxGeometry x="593" y="256" width="50" height="30" as="geometry" />
        </mxCell>
        <mxCell id="Lbz_xhJ_zkLPbIxlJQBl-63" value="" style="shape=singleArrow;whiteSpace=wrap;html=1;fillColor=light-dark(#2cdaf2, #ededed);strokeColor=none;" vertex="1" parent="1">
          <mxGeometry x="830" y="262.5" width="50" height="30" as="geometry" />
        </mxCell>
        <mxCell id="Lbz_xhJ_zkLPbIxlJQBl-64" value="" style="sketch=0;html=1;aspect=fixed;strokeColor=none;shadow=0;fillColor=#3B8DF1;verticalAlign=top;labelPosition=center;verticalLabelPosition=bottom;shape=mxgraph.gcp2.big_query" vertex="1" parent="1">
          <mxGeometry x="935" y="273.5" width="59.4" height="60" as="geometry" />
        </mxCell>
        <mxCell id="Lbz_xhJ_zkLPbIxlJQBl-65" value="" style="sketch=0;points=[[0,0,0],[0.25,0,0],[0.5,0,0],[0.75,0,0],[1,0,0],[0,1,0],[0.25,1,0],[0.5,1,0],[0.75,1,0],[1,1,0],[0,0.25,0],[0,0.5,0],[0,0.75,0],[1,0.25,0],[1,0.5,0],[1,0.75,0]];outlineConnect=0;fontColor=#232F3E;fillColor=#01A88D;strokeColor=#ffffff;dashed=0;verticalLabelPosition=bottom;verticalAlign=top;align=center;html=1;fontSize=12;fontStyle=0;aspect=fixed;shape=mxgraph.aws4.resourceIcon;resIcon=mxgraph.aws4.augmented_ai;" vertex="1" parent="1">
          <mxGeometry x="939.7" y="390" width="50" height="50" as="geometry" />
        </mxCell>
        <mxCell id="Lbz_xhJ_zkLPbIxlJQBl-66" value="" style="points=[];aspect=fixed;html=1;align=center;shadow=0;dashed=0;fillColor=#FF6A00;strokeColor=none;shape=mxgraph.alibaba_cloud.man_mobile_analytics;" vertex="1" parent="1">
          <mxGeometry x="935" y="170" width="50.099999999999994" height="41.4" as="geometry" />
        </mxCell>
        <mxCell id="Lbz_xhJ_zkLPbIxlJQBl-67" value="Text" style="text;html=1;align=center;verticalAlign=middle;whiteSpace=wrap;rounded=0;" vertex="1" parent="1">
          <mxGeometry x="510" y="260" width="60" height="30" as="geometry" />
        </mxCell>
        <mxCell id="Lbz_xhJ_zkLPbIxlJQBl-68" value="Text" style="text;html=1;align=center;verticalAlign=middle;whiteSpace=wrap;rounded=0;" vertex="1" parent="1">
          <mxGeometry x="510" y="260" width="60" height="30" as="geometry" />
        </mxCell>
        <mxCell id="Lbz_xhJ_zkLPbIxlJQBl-69" value="BI &amp;amp; Reporting" style="rounded=0;whiteSpace=wrap;html=1;strokeColor=none;" vertex="1" parent="1">
          <mxGeometry x="900.05" y="211.4" width="120" height="30" as="geometry" />
        </mxCell>
        <mxCell id="Lbz_xhJ_zkLPbIxlJQBl-70" value="Ad-hoc SQL Queries" style="rounded=0;whiteSpace=wrap;html=1;strokeColor=none;" vertex="1" parent="1">
          <mxGeometry x="890" y="340" width="130" height="30" as="geometry" />
        </mxCell>
        <mxCell id="Lbz_xhJ_zkLPbIxlJQBl-71" value="Machine Learning" style="rounded=0;whiteSpace=wrap;html=1;strokeColor=none;" vertex="1" parent="1">
          <mxGeometry x="895" y="450" width="130" height="30" as="geometry" />
        </mxCell>
        <mxCell id="Lbz_xhJ_zkLPbIxlJQBl-72" value="" style="sketch=0;outlineConnect=0;fontColor=#232F3E;gradientColor=none;fillColor=#C925D1;strokeColor=none;dashed=0;verticalLabelPosition=bottom;verticalAlign=top;align=center;html=1;fontSize=12;fontStyle=0;aspect=fixed;pointerEvents=1;shape=mxgraph.aws4.rds_sql_server_instance;" vertex="1" parent="1">
          <mxGeometry x="190" y="80" width="30" height="30" as="geometry" />
        </mxCell>
        <mxCell id="Lbz_xhJ_zkLPbIxlJQBl-74" value="SQL Server" style="text;html=1;align=center;verticalAlign=middle;whiteSpace=wrap;rounded=0;fontStyle=1" vertex="1" parent="1">
          <mxGeometry x="220" y="80" width="80" height="30" as="geometry" />
        </mxCell>
      </root>
    </mxGraphModel>
  </diagram>
</mxfile>
